<?xml version="1.0" encoding="utf-8"?>
<svg version="1.1" xmlns="http://www.w3.org/2000/svg" viewBox="0 0 419.76 297.36">
<style type="text/css">
	.letters{fill:#2a2520;}
</style>
<g>
	<g class="letters">
		<path d="M136.95,93.95h12.62c3.24,0,5.69,0.83,7.36,2.5c1.26,1.26,1.89,2.82,1.89,4.67v0.08c0,0.86-0.11,1.62-0.34,2.27
			c-0.23,0.66-0.52,1.23-0.88,1.73c-0.36,0.5-0.79,0.93-1.28,1.31c-0.49,0.38-0.99,0.7-1.5,0.97c0.83,0.3,1.58,0.64,2.26,1.03
			c0.68,0.39,1.27,0.85,1.76,1.39c0.49,0.54,0.87,1.17,1.14,1.89c0.27,0.72,0.4,1.57,0.4,2.54v0.08c0,1.26-0.25,2.38-0.74,3.34
			s-1.2,1.77-2.11,2.42c-0.91,0.64-2.01,1.13-3.29,1.47c-1.29,0.34-2.71,0.5-4.26,0.5h-13.02V93.95z M148.6,105.83
			c1.6,0,2.89-0.32,3.85-0.95c0.96-0.63,1.45-1.59,1.45-2.88v-0.08c0-1.13-0.42-2.01-1.26-2.64c-0.84-0.63-2.07-0.95-3.67-0.95
			h-7.1v7.49H148.6z M150.05,117.75c1.69,0,3.01-0.32,3.97-0.97c0.96-0.64,1.45-1.61,1.45-2.9v-0.08c0-1.21-0.48-2.14-1.43-2.8
			s-2.4-0.99-4.36-0.99h-7.83v7.73H150.05z"/>
		<path d="M162.64,93.95h12.56c1.77,0,3.34,0.25,4.71,0.75c1.37,0.5,2.51,1.19,3.42,2.07c0.75,0.78,1.33,1.68,1.73,2.7
			s0.6,2.15,0.6,3.38v0.08c0,1.15-0.17,2.19-0.5,3.12c-0.34,0.93-0.8,1.75-1.39,2.46c-0.59,0.71-1.3,1.32-2.11,1.81
			c-0.82,0.5-1.72,0.88-2.72,1.15l7.61,10.67h-5.84l-6.95-9.82h-0.08h-6.14v9.82h-4.91V93.95z M174.82,107.92
			c1.78,0,3.19-0.42,4.24-1.27c1.05-0.85,1.58-2,1.58-3.46v-0.08c0-1.54-0.51-2.7-1.54-3.5c-1.02-0.8-2.46-1.19-4.32-1.19h-7.23
			v9.5H174.82z"/>
		<path d="M188.21,93.95h4.91v28.18h-4.91V93.95z"/>
		<path d="M196.15,93.95h10.51c2.2,0,4.22,0.36,6.06,1.07c1.84,0.71,3.42,1.7,4.75,2.96c1.33,1.26,2.36,2.74,3.08,4.45
			c0.72,1.71,1.09,3.55,1.09,5.54v0.08c0,1.99-0.36,3.84-1.09,5.56c-0.72,1.72-1.75,3.21-3.08,4.47c-1.33,1.26-2.91,2.25-4.75,2.98
			c-1.84,0.72-3.86,1.09-6.06,1.09h-10.51V93.95z M206.62,117.67c1.48,0,2.82-0.24,4.03-0.71c1.21-0.47,2.23-1.13,3.08-1.98
			s1.5-1.86,1.97-3.03c0.47-1.17,0.71-2.45,0.71-3.82v-0.08c0-1.37-0.24-2.65-0.71-3.84c-0.47-1.19-1.13-2.2-1.97-3.05
			s-1.87-1.52-3.08-2c-1.21-0.48-2.55-0.73-4.03-0.73h-5.56v19.25H206.62z"/>
		<path d="M223.97,122.62c-2.2,0-4.2-0.37-6-1.11s-3.33-1.76-4.61-3.06c-1.28-1.3-2.26-2.83-2.96-4.59
			c-0.7-1.76-1.05-3.67-1.05-5.74v-0.08c0-1.96,0.36-3.82,1.08-5.6c0.72-1.77,1.72-3.32,3.02-4.65c1.3-1.33,2.84-2.38,4.62-3.16
			c1.79-0.78,3.74-1.17,5.86-1.17c1.23,0,2.36,0.09,3.36,0.26c1.01,0.17,1.94,0.42,2.8,0.74c0.86,0.32,1.67,0.72,2.44,1.19
			c0.77,0.47,1.51,1.01,2.24,1.63l-3.14,3.74c-0.54-0.46-1.09-0.87-1.65-1.25c-0.56-0.38-1.15-0.69-1.77-0.95
			c-0.62-0.25-1.29-0.46-2.03-0.6c-0.74-0.15-1.55-0.22-2.44-0.22c-1.29,0-2.49,0.27-3.6,0.81c-1.11,0.54-2.08,1.26-2.9,2.16
			c-0.82,0.9-1.46,1.96-1.93,3.17c-0.47,1.21-0.71,2.49-0.71,3.83v0.08c0,1.45,0.23,2.8,0.68,4.03c0.46,1.24,1.1,2.3,1.95,3.19
			c0.84,0.89,1.85,1.59,3.01,2.1c1.16,0.51,2.47,0.77,3.92,0.77c1.34,0,2.59-0.2,3.75-0.59c1.16-0.39,2.18-0.91,3.03-1.56v-5.3
			h-7.21v-4.31h12v11.84c-0.7,0.59-1.47,1.15-2.31,1.69c-0.85,0.54-1.76,1.01-2.74,1.41c-0.98,0.4-2.03,0.72-3.16,0.95
			C226.39,122.5,225.2,122.62,223.97,122.62z"/>
	</g>
</g>
</svg>